<?xml version="1.0" encoding="utf-8"?>
<svg width="800px" height="800px" viewBox="0 0 1024 1024" class="icon"  version="1.1" xmlns="http://www.w3.org/2000/svg"><path d="M433.91 636.82l-55.33 61.61 55.33 23.9v-85.51zM191.91 632.82l-55.33 61.61 55.33 23.9v-85.51zM467.17 402.77l-55.33 61.62 55.33 23.89v-85.51zM655.17 820.77l-55.33 61.62 55.33 23.89v-85.51zM405.17 198.77l-55.33 61.62 55.33 23.89v-85.51zM275.17 250.77l-55.33 61.62 55.33 23.89v-85.51zM660.01 448.08l-55.33 61.62 55.33 23.89v-85.51zM758.04 571.14l-55.33 61.62 55.33 23.89v-85.51zM862.59 358.4l-55.33 61.62 55.33 23.89V358.4z" fill="#1B193A" /><path d="M669.67 289.82l-55.33 61.62 55.33 23.89v-85.51zM513.17 83.94l-55.33 61.61 55.33 23.9V83.94zM200.88 406.82l-55.33 61.62 55.33 23.89v-85.51zM321.3 554.35l-55.32 61.62 55.32 23.89v-85.51zM479.67 854.55l-55.33 61.62 55.33 23.89v-85.51zM797.42 230.87l-55.33 61.62 55.33 23.89v-85.51z" fill="#F5C2BE" /><path d="M515.17 231.94l-55.33 61.61 55.33 23.9v-85.51zM641.17 149.94l-55.33 61.61 55.33 23.9v-85.51zM332.23 354.36l-55.33 61.61 55.33 23.89v-85.5zM582.11 571.89l-55.33 61.61 55.33 23.89v-85.5zM621.67 710.55l-55.33 61.62 55.33 23.89v-85.51zM344.11 745.89l-55.32 61.61 55.32 23.89v-85.5zM805.82 721.81l-55.33 61.62 55.33 23.89v-85.51zM887.42 524.87l-55.33 61.62 55.33 23.89v-85.51z" fill="#EEA79F" /></svg>